<svg width="12" height="10" viewBox="0 0 12 10" fill="none" xmlns="http://www.w3.org/2000/svg">
    <path d="M1 4C0.447715 4 0 4.44772 0 5C0 5.55228 0.447715 6 1 6V4ZM11 5L11.7071 5.70711C11.8946 5.51957 12 5.26522 12 5C12 4.73478 11.8946 4.48043 11.7071 4.29289L11 5ZM7.70711 0.292893C7.31658 -0.0976311 6.68342 -0.0976311 6.29289 0.292893C5.90237 0.683417 5.90237 1.31658 6.29289 1.70711L7.70711 0.292893ZM6.29289 8.29289C5.90237 8.68342 5.90237 9.31658 6.29289 9.70711C6.68342 10.0976 7.31658 10.0976 7.70711 9.70711L6.29289 8.29289ZM1 6H11V4H1V6ZM6.29289 1.70711L10.2929 5.70711L11.7071 4.29289L7.70711 0.292893L6.29289 1.70711ZM10.2929 4.29289L6.29289 8.29289L7.70711 9.70711L11.7071 5.70711L10.2929 4.29289Z" fill="white"/>
</svg>
