<svg width="20" height="20" viewBox="0 0 20 20" fill="none" xmlns="http://www.w3.org/2000/svg">
<path d="M9.70711 6.29289C9.31658 5.90237 8.68342 5.90237 8.29289 6.29289C7.90237 6.68342 7.90237 7.31658 8.29289 7.70711L9.70711 6.29289ZM12 10L12.7071 10.7071C13.0976 10.3166 13.0976 9.68342 12.7071 9.29289L12 10ZM8.29289 12.2929C7.90237 12.6834 7.90237 13.3166 8.29289 13.7071C8.68342 14.0976 9.31658 14.0976 9.70711 13.7071L8.29289 12.2929ZM20 10C20 4.47715 15.5228 0 10 0V2C14.4183 2 18 5.58172 18 10H20ZM10 0C4.47715 0 0 4.47715 0 10H2C2 5.58172 5.58172 2 10 2V0ZM0 10C0 15.5228 4.47715 20 10 20V18C5.58172 18 2 14.4183 2 10H0ZM10 20C15.5228 20 20 15.5228 20 10H18C18 14.4183 14.4183 18 10 18V20ZM8.29289 7.70711L11.2929 10.7071L12.7071 9.29289L9.70711 6.29289L8.29289 7.70711ZM11.2929 9.29289L8.29289 12.2929L9.70711 13.7071L12.7071 10.7071L11.2929 9.29289Z" fill="white"/>
</svg>
