<svg width="115" height="27" viewBox="0 0 115 27" fill="none" xmlns="http://www.w3.org/2000/svg">
<path d="M24.9886 3.21448C24.8505 1.85322 24.3036 1.57886 23.2416 1.57886H18.7175C17.7246 1.57886 17.4856 1.7477 17.1086 2.83987L13.7156 13.8724L10.3226 2.83987C9.94555 1.7477 9.7066 1.57886 8.71364 1.57886H4.18428C3.12229 1.57886 2.57537 1.85322 2.43731 3.21448L0.0372224 24.8732C-0.0636662 25.6541 0.00536284 25.9654 0.690344 26.0656L5.86752 26.8149C6.65339 26.9151 6.82862 26.7463 6.92951 26.1659L8.06052 16.0198L10.4925 25.5222C10.7314 26.3031 11.0394 26.6144 11.8306 26.6144H15.6006C16.3865 26.6144 16.6998 26.3083 16.9387 25.5222L19.3388 16.0198L20.5017 26.1659C20.6026 26.7463 20.7778 26.9151 21.5637 26.8149L26.7409 26.0656C27.4258 25.9654 27.4949 25.6594 27.394 24.8732L24.9886 3.21448Z" fill="#103559"/>
<path d="M37.4541 7.36841C31.6439 7.36841 28.4862 11.3508 28.4862 16.8421C28.4862 22.3334 31.6439 26.3158 37.4541 26.3158C43.2643 26.3158 46.422 22.3334 46.422 16.8421C46.422 11.3508 43.2643 7.36841 37.4541 7.36841ZM37.4541 20.1193C36.0595 20.1193 35.3121 18.8125 35.3121 16.8369C35.3121 14.8613 36.0595 13.5546 37.4541 13.5546C38.8488 13.5546 39.5961 14.8613 39.5961 16.8369C39.5961 18.8125 38.8488 20.1193 37.4541 20.1193Z" fill="#103559"/>
<path d="M59.4518 7.37893C58.2608 7.37893 49.349 7.61557 48.7693 8.43068C48.5321 8.70414 48.5321 9.07751 48.5321 9.71908L48.8062 24.5173C48.8378 25.874 49.1487 26.3158 50.3345 26.3158H54.4874C55.6784 26.3158 56.0157 25.874 56.0157 24.5173V14.2995C56.5269 14.1312 56.6956 14.0628 57.2753 14.026C58.0553 13.9945 58.4294 14.2311 58.6719 14.8727C58.8405 15.5511 58.8774 16.5713 58.8774 17.9596L58.8458 24.512C58.8458 25.8688 59.22 26.3105 60.411 26.3105H64.664C65.8551 26.3105 66.1607 25.8688 66.1924 24.512L66.4664 15.4827C66.498 13.274 66.0237 11.2389 64.9012 9.74537C63.7101 8.25188 61.9394 7.36841 59.4571 7.36841L59.4518 7.37893Z" fill="#103559"/>
<path d="M75.414 9.47363H71.1391C69.9695 9.47363 69.6331 9.877 69.6331 11.2338V24.5241C69.6331 25.8757 69.9695 26.3157 71.1391 26.3157H75.4813C76.6509 26.3157 77.0184 25.8757 77.0184 24.5241L76.9511 11.2338C76.9511 9.91367 76.5836 9.47363 75.414 9.47363Z" fill="#103559"/>
<path d="M73.5895 0.526367C71.0576 0.526367 69.6331 2.08547 69.6331 4.21058C69.6331 6.33569 71.0576 7.89479 73.5895 7.89479C76.1214 7.89479 77.5459 6.33569 77.5459 4.21058C77.5459 2.08547 76.1214 0.526367 73.5895 0.526367Z" fill="#103559"/>
<path d="M91.947 7.9196H89.3174V3.34397C89.3174 1.98862 88.9693 1.57886 87.7643 1.57886H83.6833C82.473 1.57886 82.0927 2.02014 82.0927 3.34397V7.9196H80.0201C78.8794 7.9196 78.6009 8.12448 78.6009 9.17514V12.8735C78.6009 13.9241 78.8794 14.129 80.0201 14.129H82.0927V20.5696C82.0927 24.9088 84.4063 26.842 88.7657 26.842C90.0457 26.842 91.3257 26.7422 92.5361 26.5006C93.0555 26.4007 93.1948 26.2642 93.1948 25.7546L93.0234 20.5643C93.0234 20.123 92.7824 19.9549 92.3326 20.0547C91.9523 20.1546 91.5721 20.2228 91.0526 20.2228C90.0511 20.2228 89.3227 19.8814 89.3227 18.4262V14.1185H91.9523C93.093 14.1185 93.3715 13.9136 93.3715 12.863V9.16463C93.3715 8.11397 93.093 7.90909 91.9523 7.90909L91.947 7.9196Z" fill="#103559"/>
<path d="M103.395 7.36841C97.5843 7.36841 94.4266 11.3508 94.4266 16.8421C94.4266 22.3334 97.5843 26.3158 103.395 26.3158C109.205 26.3158 112.362 22.3334 112.362 16.8421C112.362 11.3508 109.205 7.36841 103.395 7.36841ZM103.395 20.1193C102 20.1193 101.253 18.8125 101.253 16.8369C101.253 14.8613 102 13.5546 103.395 13.5546C104.789 13.5546 105.537 14.8613 105.537 16.8369C105.537 18.8125 104.789 20.1193 103.395 20.1193Z" fill="#103559"/>
<path d="M114.03 8.11049C113.421 7.67074 112.422 7.92482 111.792 8.67728C111.161 9.42975 111.145 10.3972 111.75 10.837C112.359 11.2767 113.358 11.0226 113.988 10.2702C114.619 9.5177 114.634 8.55024 114.03 8.11049Z" fill="#103559"/>
<path d="M99.6851 6.83124C100.402 6.72122 100.871 5.8148 100.733 4.80359C100.594 3.79238 99.9075 3.05886 99.191 3.16888C98.4745 3.27891 98.0051 4.18533 98.1434 5.19654C98.2818 6.20775 98.9686 6.94127 99.6851 6.83124Z" fill="#103559"/>
<path d="M108.969 7.76084C109.96 8.26123 111.461 7.31484 112.315 5.64507C113.169 3.97529 113.06 2.21305 112.063 1.71266C111.072 1.21228 109.571 2.15866 108.717 3.82844C107.863 5.49821 107.972 7.26045 108.969 7.76084Z" fill="#103559"/>
<path d="M103.837 6.30726C104.836 6.4344 105.805 5.12591 105.998 3.38834C106.191 1.64546 105.538 0.135674 104.534 0.0085342C103.535 -0.118606 102.566 1.18988 102.373 2.92745C102.18 4.67033 102.833 6.18012 103.837 6.30726Z" fill="#103559"/>
</svg>
