<svg width="22" height="14" viewBox="0 0 22 14" fill="none" xmlns="http://www.w3.org/2000/svg">
<path d="M2.58692 8.77887L3.29195 8.06969L2.58692 8.77887ZM2.58692 5.22111L1.88189 4.51193L1.88189 4.51193L2.58692 5.22111ZM19.4134 5.22111L18.7084 5.93029L19.4134 5.22111ZM19.4134 8.77887L20.1184 9.48805L19.4134 8.77887ZM20.2676 6.37976L21.2183 6.06962V6.06962L20.2676 6.37976ZM20.2676 7.62024L21.2183 7.93037L20.2676 7.62024ZM1.73292 7.62024L0.782225 7.93037H0.782225L1.73292 7.62024ZM1.73292 6.37976L2.68361 6.68989L1.73292 6.37976ZM11.0003 12C7.89513 12 5.04281 9.81031 3.29195 8.06969L1.88189 9.48805C3.6899 11.2855 7.04417 14 11.0003 14V12ZM3.29195 5.93029C5.04281 4.18967 7.89513 2 11.0003 2V0C7.04417 0 3.6899 2.7145 1.88189 4.51193L3.29195 5.93029ZM11.0003 2C14.1055 2 16.9575 4.18964 18.7084 5.93029L20.1184 4.51193C18.3104 2.71453 14.9565 0 11.0003 0V2ZM18.7084 8.06969C16.9575 9.81034 14.1055 12 11.0003 12V14C14.9565 14 18.3104 11.2855 20.1184 9.48805L18.7084 8.06969ZM18.7084 5.93029C19.1998 6.41885 19.253 6.49413 19.3169 6.68989L21.2183 6.06962C20.9831 5.34889 20.5663 4.95719 20.1184 4.51193L18.7084 5.93029ZM20.1184 9.48805C20.5663 9.0428 20.9831 8.65112 21.2183 7.93037L19.3169 7.31011C19.253 7.50587 19.1998 7.58111 18.7084 8.06969L20.1184 9.48805ZM19.3169 6.68989C19.3169 6.68986 19.3196 6.69858 19.3236 6.71751C19.3274 6.73597 19.3316 6.76024 19.3353 6.79016C19.343 6.85081 19.3475 6.92314 19.3475 7C19.3475 7.07685 19.343 7.14918 19.3353 7.20984C19.3316 7.23975 19.3274 7.26403 19.3236 7.28249C19.3196 7.30142 19.3169 7.31013 19.3169 7.31011L21.2183 7.93037C21.3165 7.62919 21.3475 7.28508 21.3475 7C21.3475 6.71492 21.3165 6.37081 21.2183 6.06962L19.3169 6.68989ZM3.29195 8.06969C2.80071 7.58133 2.74751 7.50597 2.68361 7.31011L0.782225 7.93037C1.01731 8.65101 1.4338 9.04258 1.88189 9.48805L3.29195 8.06969ZM1.88189 4.51193C1.43379 4.95741 1.01731 5.34899 0.782225 6.06962L2.68361 6.68989C2.74751 6.49402 2.80073 6.41864 3.29195 5.93029L1.88189 4.51193ZM2.68361 7.31011C2.68362 7.31014 2.68085 7.30142 2.6769 7.28249C2.67305 7.26403 2.6689 7.23975 2.66515 7.20984C2.65752 7.14918 2.65295 7.07685 2.65295 7C2.65295 6.92314 2.65752 6.85081 2.66515 6.79016C2.6689 6.76024 2.67305 6.73597 2.6769 6.71751C2.68085 6.69858 2.68362 6.68986 2.68361 6.68989L0.782225 6.06962C0.683972 6.37081 0.652954 6.71492 0.652954 7C0.652954 7.28508 0.683972 7.62918 0.782225 7.93037L2.68361 7.31011ZM11 8C10.4477 8 10 7.55229 10 7H8.00001C8.00001 8.65685 9.34315 10 11 10V8ZM10 7C10 6.44771 10.4477 6 11 6V4C9.34315 4 8.00001 5.34315 8.00001 7H10ZM11 6C11.5523 6 12 6.44772 12 7H14C14 5.34315 12.6569 4 11 4V6ZM12 7C12 7.55228 11.5523 8 11 8V10C12.6569 10 14 8.65685 14 7H12Z" fill="white"/>
</svg>
