<svg width="22" height="18" viewBox="0 0 22 18" fill="none" xmlns="http://www.w3.org/2000/svg">
<path d="M3.70712 0.292893C3.3166 -0.0976311 2.68343 -0.0976311 2.29291 0.292893C1.90238 0.683418 1.90238 1.31658 2.29291 1.70711L3.70712 0.292893ZM18.2929 17.7071C18.6834 18.0976 19.3166 18.0976 19.7071 17.7071C20.0976 17.3166 20.0976 16.6834 19.7071 16.2929L18.2929 17.7071ZM15.9743 14.6364C16.4605 14.3744 16.6423 13.7679 16.3804 13.2817C16.1185 12.7955 15.512 12.6137 15.0258 12.8756L15.9743 14.6364ZM2.58693 10.7789L1.8819 11.488L2.58693 10.7789ZM2.58839 7.21961L1.88343 6.51036L1.88343 6.51036L2.58839 7.21961ZM6.67109 5.29343C7.14977 5.01796 7.31451 4.4066 7.03905 3.92792C6.76358 3.44924 6.15222 3.2845 5.67354 3.55997L6.67109 5.29343ZM1.73292 9.62018L0.78222 9.93028V9.93028L1.73292 9.62018ZM1.73292 8.37956L0.782252 8.06936L1.73292 8.37956ZM17.8396 10.8827C17.4249 11.2475 17.3844 11.8794 17.7491 12.2941C18.1139 12.7088 18.7457 12.7493 19.1604 12.3845L17.8396 10.8827ZM19.4118 10.7805L18.7069 10.0712L19.4118 10.7805ZM19.4134 7.22111L18.7084 7.93029L19.4134 7.22111ZM9.87313 2.07256C9.3253 2.14264 8.93802 2.64355 9.0081 3.19137C9.07817 3.73919 9.57908 4.12648 10.1269 4.0564L9.87313 2.07256ZM20.2672 9.62042L21.2179 9.93063L20.2672 9.62042ZM20.2676 8.37986L21.2183 8.06975L20.2676 8.37986ZM12.9847 11.2497C13.3987 10.8842 13.4381 10.2523 13.0727 9.83821C12.7072 9.42414 12.0753 9.38473 11.6612 9.7502L12.9847 11.2497ZM10.2804 8.30559C10.6639 7.90824 10.6528 7.27517 10.2554 6.8916C9.85805 6.50803 9.22498 6.51921 8.84141 6.91657L10.2804 8.30559ZM2.29291 1.70711L18.2929 17.7071L19.7071 16.2929L3.70712 0.292893L2.29291 1.70711ZM15.0258 12.8756C13.771 13.5515 12.4061 14 11 14V16C12.8312 16 14.5238 15.4177 15.9743 14.6364L15.0258 12.8756ZM11 14C7.89486 14 5.04284 11.8103 3.29196 10.0697L1.8819 11.488C3.68988 13.2855 7.04386 16 11 16V14ZM3.29335 7.92885C4.15248 7.07492 5.31662 6.07289 6.67109 5.29343L5.67354 3.55997C4.11965 4.45418 2.81807 5.58137 1.88343 6.51036L3.29335 7.92885ZM3.29196 10.0697C2.80071 9.58132 2.74752 9.50597 2.68363 9.31007L0.78222 9.93028C1.01729 10.651 1.43374 11.0425 1.8819 11.488L3.29196 10.0697ZM1.88343 6.51036C1.43459 6.95648 1.01744 7.34858 0.782252 8.06936L2.68359 8.68976C2.74747 8.49399 2.80092 8.4183 3.29335 7.92885L1.88343 6.51036ZM2.68363 9.31007C2.68363 9.3101 2.68086 9.30138 2.67691 9.28244C2.67306 9.26397 2.66891 9.23968 2.66515 9.20976C2.65753 9.14908 2.65296 9.07672 2.65295 8.99985C2.65295 8.92297 2.65752 8.85063 2.66514 8.78996C2.6689 8.76005 2.67305 8.73578 2.6769 8.71732C2.68084 8.6984 2.68361 8.6897 2.68359 8.68976L0.782252 8.06936C0.683955 8.37061 0.652949 8.7148 0.652954 8.99988C0.652959 9.28499 0.683983 9.62911 0.78222 9.93028L2.68363 9.31007ZM19.1604 12.3845C19.5103 12.0769 19.8301 11.7746 20.1168 11.4897L18.7069 10.0712C18.446 10.3304 18.1559 10.6046 17.8396 10.8827L19.1604 12.3845ZM20.1184 6.51193C18.3104 4.7145 14.9561 2 11 2V4C14.1052 4 16.9575 6.18967 18.7084 7.93029L20.1184 6.51193ZM11 2C10.6182 2 10.2422 2.02535 9.87313 2.07256L10.1269 4.0564C10.4157 4.01946 10.7068 4 11 4V2ZM20.1168 11.4897C20.5658 11.0433 20.9827 10.6513 21.2179 9.93063L19.3165 9.31022C19.2526 9.50608 19.1991 9.58189 18.7069 10.0712L20.1168 11.4897ZM18.7084 7.93029C19.1999 8.41889 19.2531 8.49418 19.3169 8.68996L21.2183 8.06975C20.9832 7.34896 20.5664 6.95724 20.1184 6.51193L18.7084 7.93029ZM21.2179 9.93063C21.3161 9.62968 21.3473 9.28573 21.3474 9.00059C21.3475 8.71555 21.3167 8.37121 21.2183 8.06975L19.3169 8.68996C19.3169 8.68984 19.3196 8.69849 19.3236 8.71737C19.3274 8.73578 19.3315 8.76002 19.3353 8.78991C19.3429 8.85052 19.3474 8.92283 19.3474 8.9997C19.3474 9.07656 19.3427 9.14893 19.3351 9.20965C19.3313 9.2396 19.3272 9.26391 19.3233 9.28242C19.3214 9.29153 19.3197 9.29849 19.3184 9.30342C19.3171 9.3084 19.3164 9.31057 19.3165 9.31022L21.2179 9.93063ZM11.6612 9.7502C11.4843 9.90633 11.2543 9.99994 11 9.99994V11.9999C11.7602 11.9999 12.4564 11.7159 12.9847 11.2497L11.6612 9.7502ZM11 9.99994C10.4477 9.99994 10 9.55222 10 8.99994H8.00001C8.00001 10.6568 9.34316 11.9999 11 11.9999V9.99994ZM10 8.99994C10 8.7298 10.1058 8.48644 10.2804 8.30559L8.84141 6.91657C8.32145 7.45523 8.00001 8.19107 8.00001 8.99994H10Z" fill="white"/>
</svg>
