<svg width="20" height="20" viewBox="0 0 20 20" fill="none" xmlns="http://www.w3.org/2000/svg">
    <path d="M1 0C0.447715 0 0 0.447715 0 1C0 1.55228 0.447715 2 1 2V0ZM2.8418 2.30957L1.85841 2.49112L2.8418 2.30957ZM5.00004 14L4.01666 14.1816C4.10421 14.6558 4.51778 15 5.00004 15L5.00004 14ZM2.17246 1.08548L1.76793 2H1.76793L2.17246 1.08548ZM2.59375 1.43616L1.76787 2L2.59375 1.43616ZM3.5 3C2.94772 3 2.5 3.44772 2.5 4C2.5 4.55228 2.94772 5 3.5 5V3ZM18.5477 5.95972L17.5734 5.73486V5.73486L18.5477 5.95972ZM16.9785 12.7597L17.9529 12.9846L16.9785 12.7597ZM15.4195 14V13H15.4195L15.4195 14ZM16.7051 13.5891L17.5131 14.1783L16.7051 13.5891ZM16.2896 13.9198L15.8972 13H15.8972L16.2896 13.9198ZM18.256 4.14192L17.7425 5L18.256 4.14192ZM18.6946 4.69263L17.7431 5.00005L18.6946 4.69263ZM16 18H14C14 19.1046 14.8954 20 16 20V18ZM16 18V20C17.1046 20 18 19.1046 18 18H16ZM16 18H18C18 16.8954 17.1046 16 16 16V18ZM16 16C14.8954 16 14 16.8954 14 18H16V16ZM6 18H4C4 19.1046 4.89543 20 6 20V18ZM6 18V20C7.10457 20 8 19.1046 8 18H6ZM6 18H8C8 16.8954 7.10457 16 6 16V18ZM6 16C4.89543 16 4 16.8954 4 18H6V16ZM1 2H1.26835V0H1V2ZM1.85841 2.49112L4.01666 14.1816L5.98342 13.8185L3.82518 2.12802L1.85841 2.49112ZM1.26835 2C1.5201 2 1.65423 2.00065 1.75092 2.00789C1.83511 2.0142 1.81667 2.02156 1.76793 2L2.577 0.170955C2.33501 0.0639138 2.10141 0.0285414 1.9003 0.013478C1.71168 -0.000649333 1.49037 0 1.26835 0V2ZM3.82518 2.12802C3.7849 1.90983 3.74539 1.69209 3.69732 1.50928C3.64604 1.31427 3.56889 1.09093 3.41963 0.872315L1.76787 2C1.73775 1.95589 1.74162 1.9363 1.76307 2.0179C1.78774 2.1117 1.81268 2.24341 1.85841 2.49112L3.82518 2.12802ZM1.76793 2L1.76787 2L3.41963 0.872315C3.20963 0.56471 2.91787 0.321738 2.577 0.170955L1.76793 2ZM3.5 5H16.9887V3H3.5V5ZM17.5734 5.73486L16.0041 12.5349L17.9529 12.9846L19.5221 6.18458L17.5734 5.73486ZM15.4195 13L5.00003 13L5.00004 15L15.4195 15L15.4195 13ZM16.0041 12.5349C15.9497 12.7706 15.9204 12.8951 15.8931 12.9837C15.8695 13.0602 15.8669 13.0413 15.897 13L17.5131 14.1783C17.6636 13.9718 17.7467 13.7597 17.8042 13.5734C17.8579 13.3993 17.9051 13.1916 17.9529 12.9846L16.0041 12.5349ZM15.4195 15C15.6323 15 15.8453 15.0006 16.0273 14.9873C16.2218 14.9731 16.4471 14.9398 16.682 14.8396L15.8972 13C15.944 12.98 15.9615 12.9868 15.8816 12.9926C15.7892 12.9994 15.6611 13 15.4195 13V15ZM15.897 13L15.8972 13L16.682 14.8396C17.014 14.698 17.3009 14.4693 17.5131 14.1783L15.897 13ZM16.9887 5C17.3505 5 17.5562 5.00091 17.7033 5.01388C17.8424 5.02613 17.8127 5.042 17.7425 5L18.7695 3.28384C18.4622 3.09992 18.1424 3.04483 17.8789 3.0216C17.6234 2.99909 17.314 3 16.9887 3V5ZM19.5221 6.18458C19.5953 5.8677 19.6658 5.56637 19.7013 5.31239C19.738 5.05049 19.7564 4.72624 19.6462 4.38521L17.7431 5.00005C17.7178 4.922 17.74 4.89656 17.7206 5.03509C17.7001 5.18154 17.6547 5.38226 17.5734 5.73486L19.5221 6.18458ZM17.7425 5L17.7431 5.00005L19.6462 4.38521C19.4969 3.92296 19.1843 3.53208 18.7695 3.28384L17.7425 5Z" fill="white"/>
</svg>
